<svg width="22" height="22" viewBox="0 0 22 22" fill="none" xmlns="http://www.w3.org/2000/svg">
    <path d="M15 11L15.9998 11.0208C16.0001 11.0069 16.0001 10.9931 15.9998 10.9792L15 11ZM7 11L6.00022 10.9792C5.99993 10.9931 5.99993 11.0069 6.00022 11.0208L7 11ZM20 11C20 15.9706 15.9706 20 11 20V22C17.0751 22 22 17.0751 22 11H20ZM11 20C6.02944 20 2 15.9706 2 11H0C0 17.0751 4.92487 22 11 22V20ZM2 11C2 6.02944 6.02944 2 11 2V0C4.92487 0 0 4.92487 0 11H2ZM11 2C15.9706 2 20 6.02944 20 11H22C22 4.92487 17.0751 0 11 0V2ZM1 12H21V10H1V12ZM10.2617 1.67442C12.5995 4.2338 13.928 7.55521 14.0002 11.0208L15.9998 10.9792C15.9175 7.02885 14.4031 3.24291 11.7383 0.325577L10.2617 1.67442ZM14.0002 10.9792C13.928 14.4448 12.5995 17.7662 10.2617 20.3256L11.7383 21.6744C14.4031 18.7571 15.9175 14.9711 15.9998 11.0208L14.0002 10.9792ZM11.7383 20.3256C9.40055 17.7662 8.07198 14.4448 7.99978 10.9792L6.00022 11.0208C6.08251 14.9711 7.59689 18.7571 10.2617 21.6744L11.7383 20.3256ZM7.99978 11.0208C8.07198 7.55521 9.40055 4.2338 11.7383 1.67442L10.2617 0.325577C7.59689 3.24291 6.08251 7.02885 6.00022 10.9792L7.99978 11.0208Z" fill="black" fill-opacity="0.56"/>
</svg>
